<?xml version="1.0" encoding="UTF-8" standalone="no"?>
<!DOCTYPE svg PUBLIC "-//W3C//DTD SVG 1.1//EN" "http://www.w3.org/Graphics/SVG/1.1/DTD/svg11.dtd">
<svg xmlns="http://www.w3.org/2000/svg" xmlns:xl="http://www.w3.org/1999/xlink" xmlns:dc="http://purl.org/dc/elements/1.1/" version="1.1" viewBox="-235 426 864 366" width="864" height="366">
  <defs/>
  <g id="05-btmgc-parent" stroke-opacity="1" stroke-dasharray="none" stroke="none" fill="none" fill-opacity="1">
    <title>05-btmgc-parent</title>
    <rect fill="white" x="-235" y="426" width="864" height="366"/>
    <g id="05-btmgc-parent_Layer_1">
      <title>Layer 1</title>
      <g id="Graphic_23">
        <rect x="-83" y="510.15" width="203.5" height="26.391998" fill="white"/>
        <rect x="-83" y="510.15" width="203.5" height="26.391998" stroke="black" stroke-linecap="round" stroke-linejoin="round" stroke-width="1"/>
        <text transform="translate(-78 516.178)" fill="black">
          <tspan font-family="Helvetica Neue" font-size="12" fill="black" x="51.714" y="11" xml:space="preserve">Append C@0x30</tspan>
        </text>
      </g>
      <g id="Graphic_22">
        <rect x="136.5" y="510.15" width="203.5" height="26.391998" fill="white"/>
        <rect x="136.5" y="510.15" width="203.5" height="26.391998" stroke="black" stroke-linecap="round" stroke-linejoin="round" stroke-width="1"/>
      </g>
      <g id="Graphic_21">
        <rect x="355.5" y="510.15" width="203.5" height="26.391998" fill="white"/>
        <rect x="355.5" y="510.15" width="203.5" height="26.391998" stroke="black" stroke-linecap="round" stroke-linejoin="round" stroke-width="1"/>
      </g>
      <g id="Line_20">
        <line x1="-100.448" y1="459.224" x2="626.77344" y2="459.224" stroke="#7f8080" stroke-linecap="round" stroke-linejoin="round" stroke-width="1"/>
      </g>
      <g id="Graphic_19">
        <text transform="translate(-230 450.5)" fill="black">
          <tspan font-family="Helvetica Neue" font-size="16" fill="black" x="0" y="15" xml:space="preserve">GC Horizon</tspan>
        </text>
      </g>
      <g id="Graphic_18">
        <rect x="-82.75" y="426.748" width="203.5" height="26.391998" fill="white"/>
        <rect x="-82.75" y="426.748" width="203.5" height="26.391998" stroke="black" stroke-linecap="round" stroke-linejoin="round" stroke-width="1"/>
        <text transform="translate(-77.75 432.776)" fill="black">
          <tspan font-family="Helvetica Neue" font-size="12" fill="black" x="52.602" y="11" xml:space="preserve">Append F@0x60</tspan>
        </text>
      </g>
      <g id="Graphic_17">
        <rect x="136.75" y="426.748" width="203.5" height="26.391998" fill="white"/>
        <rect x="136.75" y="426.748" width="203.5" height="26.391998" stroke="black" stroke-linecap="round" stroke-linejoin="round" stroke-width="1"/>
      </g>
      <g id="Graphic_16">
        <rect x="355.75" y="426.748" width="203.5" height="26.391998" fill="white"/>
        <rect x="355.75" y="426.748" width="203.5" height="26.391998" stroke="black" stroke-linecap="round" stroke-linejoin="round" stroke-width="1"/>
      </g>
      <g id="Graphic_15">
        <rect x="-82.75" y="464.645" width="113.75" height="34" fill="white"/>
        <rect x="-82.75" y="464.645" width="113.75" height="34" stroke="black" stroke-linecap="round" stroke-linejoin="round" stroke-width="1"/>
        <text transform="translate(-77.75 467.309)" fill="black">
          <tspan font-family="Helvetica Neue" font-size="12" fill="black" x="7.505" y="11" xml:space="preserve">Append E@0x50</tspan>
          <tspan font-family="Helvetica Neue" font-size="12" fill="black" x="6.947" y="25.336" xml:space="preserve">Append D@0x40</tspan>
        </text>
      </g>
      <g id="Graphic_14">
        <rect x="41.5" y="464.645" width="203.5" height="34" fill="white"/>
        <rect x="41.5" y="464.645" width="203.5" height="34" stroke="black" stroke-linecap="round" stroke-linejoin="round" stroke-width="1"/>
      </g>
      <g id="Graphic_13">
        <rect x="255.5" y="464.645" width="303.5" height="34" fill="white"/>
        <rect x="255.5" y="464.645" width="303.5" height="34" stroke="black" stroke-linecap="round" stroke-linejoin="round" stroke-width="1"/>
      </g>
      <g id="Graphic_12">
        <rect x="-83" y="548.047" width="203.5" height="26.391998" fill="white"/>
        <rect x="-83" y="548.047" width="203.5" height="26.391998" stroke="black" stroke-linecap="round" stroke-linejoin="round" stroke-width="1"/>
        <text transform="translate(-78 554.075)" fill="black">
          <tspan font-family="Helvetica Neue" font-size="12" fill="black" x="26.796" y="11" xml:space="preserve">A@0x10, Append B@0x20</tspan>
        </text>
      </g>
      <g id="Graphic_11">
        <rect x="136.5" y="548.047" width="203.5" height="26.391998" fill="white"/>
        <rect x="136.5" y="548.047" width="203.5" height="26.391998" stroke="black" stroke-linecap="round" stroke-linejoin="round" stroke-width="1"/>
      </g>
      <g id="Graphic_10">
        <rect x="355.5" y="548.047" width="203.5" height="26.391998" fill="white"/>
        <rect x="355.5" y="548.047" width="203.5" height="26.391998" stroke="black" stroke-linecap="round" stroke-linejoin="round" stroke-width="1"/>
      </g>
      <g id="Line_24">
        <line x1="-104" y1="542" x2="610.5" y2="542" stroke="#7f8080" stroke-linecap="round" stroke-linejoin="round" stroke-dasharray="4.0,4.0" stroke-width="1"/>
      </g>
      <g id="Graphic_25">
        <text transform="translate(-139.604 534.5)" fill="black">
          <tspan font-family="Helvetica Neue" font-size="14" fill="black" x="0" y="13" xml:space="preserve">0x20</tspan>
        </text>
      </g>
      <g id="Graphic_28">
        <text transform="translate(-139.604 452.556)" fill="black">
          <tspan font-family="Helvetica Neue" font-size="14" fill="black" x="0" y="13" xml:space="preserve">0x50</tspan>
        </text>
      </g>
      <g id="Line_30">
        <line x1="-100.448" y1="481.145" x2="614.052" y2="481.145" stroke="#7f8080" stroke-linecap="round" stroke-linejoin="round" stroke-dasharray="4.0,4.0" stroke-width="1"/>
      </g>
      <g id="Graphic_29">
        <text transform="translate(-139.604 473.449)" fill="black">
          <tspan font-family="Helvetica Neue" font-size="14" fill="black" x="0" y="13" xml:space="preserve">0x40</tspan>
        </text>
      </g>
      <g id="Line_48">
        <line x1="-99.448" y1="701.513" x2="627.77344" y2="701.513" stroke="#7f8080" stroke-linecap="round" stroke-linejoin="round" stroke-width="1"/>
      </g>
      <g id="Graphic_47">
        <text transform="translate(-229 692.789)" fill="black">
          <tspan font-family="Helvetica Neue" font-size="16" fill="black" x="0" y="15" xml:space="preserve">GC Horizon</tspan>
        </text>
      </g>
      <g id="Graphic_46">
        <rect x="-81.75" y="670.496" width="113.75" height="26.391998" fill="white"/>
        <rect x="-81.75" y="670.496" width="113.75" height="26.391998" stroke="black" stroke-linecap="round" stroke-linejoin="round" stroke-width="1"/>
        <text transform="translate(-76.75 676.524)" fill="black">
          <tspan font-family="Helvetica Neue" font-size="12" fill="black" x="7.727" y="11" xml:space="preserve">Append F@0x60</tspan>
        </text>
      </g>
      <g id="Graphic_43">
        <rect x="-81.75" y="708.393" width="113.75" height="34" fill="white"/>
        <rect x="-81.75" y="708.393" width="113.75" height="34" stroke="black" stroke-linecap="round" stroke-linejoin="round" stroke-width="1"/>
        <text transform="translate(-76.75 718.225)" fill="black">
          <tspan font-family="Helvetica Neue" font-size="12" fill="black" x="7.505" y="11" xml:space="preserve">Append E@0x50</tspan>
        </text>
      </g>
      <g id="Line_37">
        <line x1="-101" y1="777.2665" x2="613.5" y2="777.2665" stroke="#7f8080" stroke-linecap="round" stroke-linejoin="round" stroke-dasharray="4.0,4.0" stroke-width="1"/>
      </g>
      <g id="Graphic_36">
        <text transform="translate(-138.604 769.7665)" fill="black">
          <tspan font-family="Helvetica Neue" font-size="14" fill="black" x="0" y="13" xml:space="preserve">0x20</tspan>
        </text>
      </g>
      <g id="Graphic_33">
        <text transform="translate(-138.604 694.845)" fill="black">
          <tspan font-family="Helvetica Neue" font-size="14" fill="black" x="0" y="13" xml:space="preserve">0x50</tspan>
        </text>
      </g>
      <g id="Line_32">
        <line x1="-99.448" y1="755.089" x2="615.052" y2="755.089" stroke="#7f8080" stroke-linecap="round" stroke-linejoin="round" stroke-dasharray="4.0,4.0" stroke-width="1"/>
      </g>
      <g id="Graphic_31">
        <text transform="translate(-138.604 747.393)" fill="black">
          <tspan font-family="Helvetica Neue" font-size="14" fill="black" x="0" y="13" xml:space="preserve">0x40</tspan>
        </text>
      </g>
      <g id="Graphic_40">
        <rect x="-82" y="770.909" width="203.5" height="14.107002" fill="white"/>
        <rect x="-82" y="770.909" width="203.5" height="14.107002" stroke="black" stroke-linecap="round" stroke-linejoin="round" stroke-width="1"/>
        <text transform="translate(-77 770.7945)" fill="black">
          <tspan font-family="Helvetica Neue" font-size="12" fill="black" x="70.836" y="11" xml:space="preserve">AB@0x20</tspan>
        </text>
      </g>
      <g id="Graphic_39">
        <rect x="137.5" y="770.909" width="203.5" height="14.107002" fill="white"/>
        <rect x="137.5" y="770.909" width="203.5" height="14.107002" stroke="black" stroke-linecap="round" stroke-linejoin="round" stroke-width="1"/>
      </g>
      <g id="Graphic_38">
        <rect x="356.5" y="770.909" width="203.5" height="14.107002" fill="white"/>
        <rect x="356.5" y="770.909" width="203.5" height="14.107002" stroke="black" stroke-linecap="round" stroke-linejoin="round" stroke-width="1"/>
      </g>
      <g id="Graphic_54">
        <rect x="-81.75" y="748.5355" width="203.5" height="14.107002" fill="white"/>
        <rect x="-81.75" y="748.5355" width="203.5" height="14.107002" stroke="black" stroke-linecap="round" stroke-linejoin="round" stroke-width="1"/>
        <text transform="translate(-76.75 748.421)" fill="black">
          <tspan font-family="Helvetica Neue" font-size="12" fill="black" x="62.28" y="11" xml:space="preserve">ABCD@0x40</tspan>
        </text>
      </g>
      <g id="Graphic_53">
        <rect x="137.75" y="748.5355" width="203.5" height="14.107002" fill="white"/>
        <rect x="137.75" y="748.5355" width="203.5" height="14.107002" stroke="black" stroke-linecap="round" stroke-linejoin="round" stroke-width="1"/>
      </g>
      <g id="Graphic_52">
        <rect x="356.75" y="748.5355" width="203.5" height="14.107002" fill="white"/>
        <rect x="356.75" y="748.5355" width="203.5" height="14.107002" stroke="black" stroke-linecap="round" stroke-linejoin="round" stroke-width="1"/>
      </g>
      <g id="Graphic_57">
        <path d="M 211.32422 585 L 265.17578 585 L 265.17578 611.332 L 287.84375 611.332 L 238.25 633.117 L 188.65625 611.332 L 211.32422 611.332 Z" fill="white"/>
        <path d="M 211.32422 585 L 265.17578 585 L 265.17578 611.332 L 287.84375 611.332 L 238.25 633.117 L 188.65625 611.332 L 211.32422 611.332 Z" stroke="black" stroke-linecap="round" stroke-linejoin="round" stroke-width="1"/>
      </g>
      <g id="Graphic_60">
        <rect x="359" y="692.858" width="203.5" height="14.107002" fill="white"/>
        <rect x="359" y="692.858" width="203.5" height="14.107002" stroke="black" stroke-linecap="round" stroke-linejoin="round" stroke-width="1"/>
      </g>
      <g id="Graphic_59">
        <rect x="41.5" y="693.858" width="303" height="14.107002" fill="white"/>
        <rect x="41.5" y="693.858" width="303" height="14.107002" stroke="black" stroke-linecap="round" stroke-linejoin="round" stroke-width="1"/>
      </g>
    </g>
  </g>
</svg>
