<?xml version="1.0" encoding="UTF-8" standalone="no"?>
<!DOCTYPE svg PUBLIC "-//W3C//DTD SVG 1.1//EN" "http://www.w3.org/Graphics/SVG/1.1/DTD/svg11.dtd">
<svg xmlns="http://www.w3.org/2000/svg" xmlns:xl="http://www.w3.org/1999/xlink" xmlns:dc="http://purl.org/dc/elements/1.1/" version="1.1" viewBox="-413 471 931 354" width="931" height="354">
  <defs/>
  <g id="06-btmgc-child" stroke-opacity="1" stroke-dasharray="none" stroke="none" fill="none" fill-opacity="1">
    <title>06-btmgc-child</title>
    <rect fill="white" x="-413" y="471" width="931" height="354"/>
    <g id="06-btmgc-child_Layer_1">
      <title>Layer 1</title>
      <g id="Graphic_47">
        <rect x="-412" y="594.402" width="928" height="28.447998" fill="white"/>
        <rect x="-412" y="594.402" width="928" height="28.447998" stroke="black" stroke-linecap="round" stroke-linejoin="round" stroke-width="1"/>
      </g>
      <g id="Graphic_46">
        <rect x="-205" y="555.552" width="203.5" height="26.391998" fill="white"/>
        <rect x="-205" y="555.552" width="203.5" height="26.391998" stroke="black" stroke-linecap="round" stroke-linejoin="round" stroke-width="1"/>
        <text transform="translate(-200 561.58)" fill="black">
          <tspan font-family="Helvetica Neue" font-size="12" fill="black" x="52.158" y="11" xml:space="preserve">Append P@0x30</tspan>
        </text>
      </g>
      <g id="Graphic_45">
        <rect x="14.5" y="555.552" width="203.5" height="26.391998" fill="white"/>
        <rect x="14.5" y="555.552" width="203.5" height="26.391998" stroke="black" stroke-linecap="round" stroke-linejoin="round" stroke-width="1"/>
      </g>
      <g id="Graphic_44">
        <rect x="233.5" y="555.552" width="203.5" height="26.391998" fill="white"/>
        <rect x="233.5" y="555.552" width="203.5" height="26.391998" stroke="black" stroke-linecap="round" stroke-linejoin="round" stroke-width="1"/>
      </g>
      <g id="Line_43">
        <line x1="-222.448" y1="504.724" x2="504.77344" y2="504.724" stroke="#7f8080" stroke-linecap="round" stroke-linejoin="round" stroke-width="1"/>
      </g>
      <g id="Graphic_42">
        <text transform="translate(-352 496)" fill="black">
          <tspan font-family="Helvetica Neue" font-size="16" fill="black" x="0" y="15" xml:space="preserve">GC Horizon</tspan>
        </text>
      </g>
      <g id="Graphic_41">
        <rect x="-204.75" y="472.15" width="203.5" height="26.391998" fill="white"/>
        <rect x="-204.75" y="472.15" width="203.5" height="26.391998" stroke="black" stroke-linecap="round" stroke-linejoin="round" stroke-width="1"/>
        <text transform="translate(-199.75 478.178)" fill="black">
          <tspan font-family="Helvetica Neue" font-size="12" fill="black" x="52.158" y="11" xml:space="preserve">Append S@0x60</tspan>
        </text>
      </g>
      <g id="Graphic_40">
        <rect x="14.75" y="472.15" width="203.5" height="26.391998" fill="white"/>
        <rect x="14.75" y="472.15" width="203.5" height="26.391998" stroke="black" stroke-linecap="round" stroke-linejoin="round" stroke-width="1"/>
      </g>
      <g id="Graphic_39">
        <rect x="233.75" y="472.15" width="203.5" height="26.391998" fill="white"/>
        <rect x="233.75" y="472.15" width="203.5" height="26.391998" stroke="black" stroke-linecap="round" stroke-linejoin="round" stroke-width="1"/>
      </g>
      <g id="Graphic_38">
        <rect x="-204.75" y="510.047" width="113.75" height="34" fill="white"/>
        <rect x="-204.75" y="510.047" width="113.75" height="34" stroke="black" stroke-linecap="round" stroke-linejoin="round" stroke-width="1"/>
        <text transform="translate(-199.75 512.711)" fill="black">
          <tspan font-family="Helvetica Neue" font-size="12" fill="black" x="7.061" y="11" xml:space="preserve">Append R@0x50</tspan>
          <tspan font-family="Helvetica Neue" font-size="12" fill="black" x="6.611" y="25.336" xml:space="preserve">Append Q@0x40</tspan>
        </text>
      </g>
      <g id="Graphic_37">
        <rect x="-80.5" y="510.047" width="203.5" height="34" fill="white"/>
        <rect x="-80.5" y="510.047" width="203.5" height="34" stroke="black" stroke-linecap="round" stroke-linejoin="round" stroke-width="1"/>
      </g>
      <g id="Graphic_36">
        <rect x="133.5" y="510.047" width="303.5" height="34" fill="white"/>
        <rect x="133.5" y="510.047" width="303.5" height="34" stroke="black" stroke-linecap="round" stroke-linejoin="round" stroke-width="1"/>
      </g>
      <g id="Graphic_33">
        <text transform="translate(-261.604 498.056)" fill="black">
          <tspan font-family="Helvetica Neue" font-size="14" fill="black" x="0" y="13" xml:space="preserve">0x50</tspan>
        </text>
      </g>
      <g id="Line_30">
        <line x1="-224" y1="607.9115" x2="490.5" y2="607.9115" stroke="#7f8080" stroke-linecap="round" stroke-linejoin="round" stroke-dasharray="4.0,4.0" stroke-width="1"/>
      </g>
      <g id="Graphic_29">
        <text transform="translate(-261.604 600.4115)" fill="black">
          <tspan font-family="Helvetica Neue" font-size="14" fill="black" x="0" y="13" xml:space="preserve">0x20</tspan>
        </text>
      </g>
      <g id="Graphic_28">
        <rect x="-205" y="601.554" width="203.5" height="14.107002" fill="white"/>
        <rect x="-205" y="601.554" width="203.5" height="14.107002" stroke="black" stroke-linecap="round" stroke-linejoin="round" stroke-width="1"/>
        <text transform="translate(-200 601.4395)" fill="black">
          <tspan font-family="Helvetica Neue" font-size="12" fill="black" x="70.836" y="11" xml:space="preserve">AB@0x20</tspan>
        </text>
      </g>
      <g id="Graphic_27">
        <rect x="14.5" y="601.554" width="203.5" height="14.107002" fill="white"/>
        <rect x="14.5" y="601.554" width="203.5" height="14.107002" stroke="black" stroke-linecap="round" stroke-linejoin="round" stroke-width="1"/>
      </g>
      <g id="Graphic_26">
        <rect x="233.5" y="601.554" width="203.5" height="14.107002" fill="white"/>
        <rect x="233.5" y="601.554" width="203.5" height="14.107002" stroke="black" stroke-linecap="round" stroke-linejoin="round" stroke-width="1"/>
      </g>
      <g id="Graphic_25">
        <text transform="translate(-407 599.1875)" fill="black">
          <tspan font-family="Helvetica Neue" font-size="16" fill="black" x="0" y="15" xml:space="preserve">Ancestor Branch</tspan>
        </text>
      </g>
      <g id="Graphic_24">
        <rect x="-411" y="795.46" width="928" height="28.447998" fill="white"/>
        <rect x="-411" y="795.46" width="928" height="28.447998" stroke="black" stroke-linecap="round" stroke-linejoin="round" stroke-width="1"/>
      </g>
      <g id="Line_20">
        <line x1="-221.448" y1="755.528" x2="505.77344" y2="755.528" stroke="#7f8080" stroke-linecap="round" stroke-linejoin="round" stroke-width="1"/>
      </g>
      <g id="Graphic_19">
        <text transform="translate(-351 746.804)" fill="black">
          <tspan font-family="Helvetica Neue" font-size="16" fill="black" x="0" y="15" xml:space="preserve">GC Horizon</tspan>
        </text>
      </g>
      <g id="Graphic_18">
        <rect x="-203.75" y="723.579" width="203.25" height="26.391998" fill="white"/>
        <rect x="-203.75" y="723.579" width="203.25" height="26.391998" stroke="black" stroke-linecap="round" stroke-linejoin="round" stroke-width="1"/>
        <text transform="translate(-198.75 729.607)" fill="black">
          <tspan font-family="Helvetica Neue" font-size="12" fill="black" x="52.033" y="11" xml:space="preserve">Append S@0x60</tspan>
        </text>
      </g>
      <g id="Graphic_10">
        <text transform="translate(-260.604 748.86)" fill="black">
          <tspan font-family="Helvetica Neue" font-size="14" fill="black" x="0" y="13" xml:space="preserve">0x50</tspan>
        </text>
      </g>
      <g id="Line_7">
        <line x1="-223" y1="808.9695" x2="491.5" y2="808.9695" stroke="#7f8080" stroke-linecap="round" stroke-linejoin="round" stroke-dasharray="4.0,4.0" stroke-width="1"/>
      </g>
      <g id="Graphic_6">
        <text transform="translate(-260.604 801.4695)" fill="black">
          <tspan font-family="Helvetica Neue" font-size="14" fill="black" x="0" y="13" xml:space="preserve">0x20</tspan>
        </text>
      </g>
      <g id="Graphic_5">
        <rect x="-204" y="802.612" width="203.5" height="14.107002" fill="white"/>
        <rect x="-204" y="802.612" width="203.5" height="14.107002" stroke="black" stroke-linecap="round" stroke-linejoin="round" stroke-width="1"/>
        <text transform="translate(-199 802.4975)" fill="#b1001c">
          <tspan font-family="Helvetica Neue" font-size="12" fill="#b1001c" x="70.836" y="11" xml:space="preserve">AB</tspan>
          <tspan font-family="Helvetica Neue" font-size="12" fill="black" y="11" xml:space="preserve">@0x20</tspan>
        </text>
      </g>
      <g id="Graphic_4">
        <rect x="15.5" y="802.612" width="203.5" height="14.107002" fill="white"/>
        <rect x="15.5" y="802.612" width="203.5" height="14.107002" stroke="black" stroke-linecap="round" stroke-linejoin="round" stroke-width="1"/>
      </g>
      <g id="Graphic_3">
        <rect x="234.5" y="802.612" width="203.5" height="14.107002" fill="white"/>
        <rect x="234.5" y="802.612" width="203.5" height="14.107002" stroke="black" stroke-linecap="round" stroke-linejoin="round" stroke-width="1"/>
      </g>
      <g id="Graphic_2">
        <text transform="translate(-406 800.2455)" fill="black">
          <tspan font-family="Helvetica Neue" font-size="16" fill="black" x="0" y="15" xml:space="preserve">Ancestor Branch</tspan>
        </text>
      </g>
      <g id="Graphic_48">
        <path d="M 89.32422 639.081 L 143.17578 639.081 L 143.17578 665.413 L 165.84375 665.413 L 116.25 687.198 L 66.65625 665.413 L 89.32422 665.413 Z" fill="white"/>
        <path d="M 89.32422 639.081 L 143.17578 639.081 L 143.17578 665.413 L 165.84375 665.413 L 116.25 687.198 L 66.65625 665.413 L 89.32422 665.413 Z" stroke="black" stroke-linecap="round" stroke-linejoin="round" stroke-width="1"/>
      </g>
      <g id="Graphic_49">
        <rect x="-204" y="762.428" width="203.5" height="26.391998" fill="white"/>
        <rect x="-204" y="762.428" width="203.5" height="26.391998" stroke="black" stroke-linecap="round" stroke-linejoin="round" stroke-width="1"/>
        <text transform="translate(-199 768.456)" fill="#b1001c">
          <tspan font-family="Helvetica Neue" font-size="12" fill="#b1001c" x="58.278" y="11" xml:space="preserve">AB</tspan>
          <tspan font-family="Helvetica Neue" font-size="12" fill="black" y="11" xml:space="preserve">PQR@0x50</tspan>
        </text>
      </g>
      <g id="Graphic_59">
        <rect x="14.5" y="723.579" width="203.5" height="26.391998" fill="white"/>
        <rect x="14.5" y="723.579" width="203.5" height="26.391998" stroke="black" stroke-linecap="round" stroke-linejoin="round" stroke-width="1"/>
      </g>
      <g id="Graphic_58">
        <rect x="233.5" y="723.579" width="203.5" height="26.391998" fill="white"/>
        <rect x="233.5" y="723.579" width="203.5" height="26.391998" stroke="black" stroke-linecap="round" stroke-linejoin="round" stroke-width="1"/>
      </g>
      <g id="Graphic_63">
        <rect x="9" y="762.085" width="203.5" height="26.391998" fill="white"/>
        <rect x="9" y="762.085" width="203.5" height="26.391998" stroke="black" stroke-linecap="round" stroke-linejoin="round" stroke-width="1"/>
      </g>
      <g id="Graphic_62">
        <rect x="225" y="762.085" width="213" height="26.391998" fill="white"/>
        <rect x="225" y="762.085" width="213" height="26.391998" stroke="black" stroke-linecap="round" stroke-linejoin="round" stroke-width="1"/>
      </g>
    </g>
  </g>
</svg>
