<?xml version="1.0" encoding="UTF-8" standalone="no"?>
<!DOCTYPE svg PUBLIC "-//W3C//DTD SVG 1.1//EN" "http://www.w3.org/Graphics/SVG/1.1/DTD/svg11.dtd">
<svg xmlns="http://www.w3.org/2000/svg" xmlns:xl="http://www.w3.org/1999/xlink" xmlns:dc="http://purl.org/dc/elements/1.1/" version="1.1" viewBox="-562 479 876 429" width="876" height="429">
  <defs/>
  <g id="09-btmgc-analysis-2" stroke-opacity="1" stroke-dasharray="none" stroke="none" fill="none" fill-opacity="1">
    <title>09-btmgc-analysis-2</title>
    <rect fill="white" x="-562" y="479" width="876" height="429"/>
    <g id="09-btmgc-analysis-2_Layer_1">
      <title>Layer 1</title>
      <g id="Graphic_85">
        <rect x="-404" y="622.386" width="203.5" height="17.5" fill="white"/>
        <rect x="-404" y="622.386" width="203.5" height="17.5" stroke="black" stroke-linecap="round" stroke-linejoin="round" stroke-width="1"/>
        <text transform="translate(-399 621.912)" fill="black">
          <tspan font-family="Helvetica Neue" font-size="16" fill="black" x="90.974" y="15" xml:space="preserve">C</tspan>
        </text>
      </g>
      <g id="Graphic_84">
        <rect x="-184.5" y="622.386" width="203.5" height="17.5" fill="white"/>
        <rect x="-184.5" y="622.386" width="203.5" height="17.5" stroke="black" stroke-linecap="round" stroke-linejoin="round" stroke-width="1"/>
        <text transform="translate(-179.5 621.912)" fill="black">
          <tspan font-family="Helvetica Neue" font-size="16" fill="black" x="90.974" y="15" xml:space="preserve">C</tspan>
        </text>
      </g>
      <g id="Graphic_83">
        <rect x="34.5" y="622.386" width="203.5" height="17.5" fill="white"/>
        <rect x="34.5" y="622.386" width="203.5" height="17.5" stroke="black" stroke-linecap="round" stroke-linejoin="round" stroke-width="1"/>
        <text transform="translate(39.5 621.912)" fill="black">
          <tspan font-family="Helvetica Neue" font-size="16" fill="black" x="90.974" y="15" xml:space="preserve">C</tspan>
        </text>
      </g>
      <g id="Graphic_82">
        <rect x="-404" y="479.922" width="127" height="77.5" fill="white"/>
        <rect x="-404" y="479.922" width="127" height="77.5" stroke="black" stroke-linecap="round" stroke-linejoin="round" stroke-width="1"/>
        <text transform="translate(-399 509.448)" fill="black">
          <tspan font-family="Helvetica Neue" font-size="16" fill="black" x="53.316" y="15" xml:space="preserve">A</tspan>
        </text>
      </g>
      <g id="Graphic_81">
        <rect x="-263" y="479.922" width="127" height="77.5" fill="white"/>
        <rect x="-263" y="479.922" width="127" height="77.5" stroke="black" stroke-linecap="round" stroke-linejoin="round" stroke-width="1"/>
        <text transform="translate(-258 509.448)" fill="black">
          <tspan font-family="Helvetica Neue" font-size="16" fill="black" x="53.316" y="15" xml:space="preserve">A</tspan>
        </text>
      </g>
      <g id="Graphic_80">
        <rect x="-122" y="479.922" width="127" height="77.5" fill="white"/>
        <rect x="-122" y="479.922" width="127" height="77.5" stroke="black" stroke-linecap="round" stroke-linejoin="round" stroke-width="1"/>
        <text transform="translate(-117 509.448)" fill="black">
          <tspan font-family="Helvetica Neue" font-size="16" fill="black" x="53.316" y="15" xml:space="preserve">A</tspan>
        </text>
      </g>
      <g id="Graphic_79">
        <rect x="19" y="479.922" width="127" height="77.5" fill="white"/>
        <rect x="19" y="479.922" width="127" height="77.5" stroke="black" stroke-linecap="round" stroke-linejoin="round" stroke-width="1"/>
        <text transform="translate(24 509.448)" fill="black">
          <tspan font-family="Helvetica Neue" font-size="16" fill="black" x="53.316" y="15" xml:space="preserve">A</tspan>
        </text>
      </g>
      <g id="Graphic_78">
        <rect x="160" y="479.922" width="78" height="77.5" fill="white"/>
        <rect x="160" y="479.922" width="78" height="77.5" stroke="black" stroke-linecap="round" stroke-linejoin="round" stroke-width="1"/>
        <text transform="translate(165 509.448)" fill="black">
          <tspan font-family="Helvetica Neue" font-size="16" fill="black" x="28.816" y="15" xml:space="preserve">A</tspan>
        </text>
      </g>
      <g id="Line_77">
        <line x1="-452.5" y1="518.172" x2="251" y2="518.172" stroke="#7f8080" stroke-linecap="round" stroke-linejoin="round" stroke-width="1"/>
      </g>
      <g id="Graphic_76">
        <text transform="translate(-551 509.448)" fill="black">
          <tspan font-family="Helvetica Neue" font-size="16" fill="black" x="0" y="15" xml:space="preserve">GC Horizon</tspan>
        </text>
      </g>
      <g id="Graphic_73">
        <path d="M -120.675 651.5 L -84.425 651.5 L -84.425 710 L -66.3 710 L -102.55 740 L -138.8 710 L -120.675 710 Z" fill="white"/>
        <path d="M -120.675 651.5 L -84.425 651.5 L -84.425 710 L -66.3 710 L -102.55 740 L -138.8 710 L -120.675 710 Z" stroke="black" stroke-linecap="round" stroke-linejoin="round" stroke-width="1"/>
      </g>
      <g id="Graphic_89">
        <rect x="-403.8" y="582.324" width="161.8" height="28.447998" fill="white"/>
        <rect x="-403.8" y="582.324" width="161.8" height="28.447998" stroke="black" stroke-linecap="round" stroke-linejoin="round" stroke-width="1"/>
        <text transform="translate(-398.8 587.324)" fill="black">
          <tspan font-family="Helvetica Neue" font-size="16" fill="black" x="70.42" y="15" xml:space="preserve">B</tspan>
        </text>
      </g>
      <g id="Graphic_90">
        <rect x="-229.5" y="582.342" width="277.2" height="28.447998" fill="white"/>
        <rect x="-229.5" y="582.342" width="277.2" height="28.447998" stroke="black" stroke-linecap="round" stroke-linejoin="round" stroke-width="1"/>
        <text transform="translate(-224.5 587.342)" fill="black">
          <tspan font-family="Helvetica Neue" font-size="16" fill="black" x="128.12" y="15" xml:space="preserve">B</tspan>
        </text>
      </g>
      <g id="Graphic_91">
        <rect x="64.7" y="582.342" width="173.5" height="28.447998" fill="white"/>
        <rect x="64.7" y="582.342" width="173.5" height="28.447998" stroke="black" stroke-linecap="round" stroke-linejoin="round" stroke-width="1"/>
        <text transform="translate(69.7 587.342)" fill="black">
          <tspan font-family="Helvetica Neue" font-size="16" fill="black" x="76.27" y="15" xml:space="preserve">B</tspan>
        </text>
      </g>
      <g id="Graphic_97">
        <rect x="-403.8" y="564.842" width="490.8" height="12.157997" fill="white"/>
        <rect x="-403.8" y="564.842" width="490.8" height="12.157997" stroke="black" stroke-linecap="round" stroke-linejoin="round" stroke-width="1"/>
        <text transform="translate(-398.8 561.697)" fill="black">
          <tspan font-family="Helvetica Neue" font-size="16" fill="black" x="234.624" y="15" xml:space="preserve">C</tspan>
        </text>
      </g>
      <g id="Graphic_109">
        <rect x="28.6" y="889.964" width="203.5" height="17.5" fill="white"/>
        <rect x="28.6" y="889.964" width="203.5" height="17.5" stroke="black" stroke-linecap="round" stroke-linejoin="round" stroke-width="1"/>
        <text transform="translate(33.6 889.49)" fill="black">
          <tspan font-family="Helvetica Neue" font-size="16" fill="black" x="90.974" y="15" xml:space="preserve">C</tspan>
        </text>
      </g>
      <g id="Graphic_108">
        <rect x="-409.9" y="747.5" width="127" height="77.5" fill="white"/>
        <rect x="-409.9" y="747.5" width="127" height="77.5" stroke="black" stroke-linecap="round" stroke-linejoin="round" stroke-width="1"/>
        <text transform="translate(-404.9 777.026)" fill="black">
          <tspan font-family="Helvetica Neue" font-size="16" fill="black" x="53.316" y="15" xml:space="preserve">A</tspan>
        </text>
      </g>
      <g id="Graphic_107">
        <rect x="-268.9" y="747.5" width="127" height="77.5" fill="white"/>
        <rect x="-268.9" y="747.5" width="127" height="77.5" stroke="black" stroke-linecap="round" stroke-linejoin="round" stroke-width="1"/>
        <text transform="translate(-263.9 777.026)" fill="black">
          <tspan font-family="Helvetica Neue" font-size="16" fill="black" x="53.316" y="15" xml:space="preserve">A</tspan>
        </text>
      </g>
      <g id="Graphic_106">
        <rect x="-127.9" y="747.5" width="127" height="77.5" fill="white"/>
        <rect x="-127.9" y="747.5" width="127" height="77.5" stroke="black" stroke-linecap="round" stroke-linejoin="round" stroke-width="1"/>
        <text transform="translate(-122.9 777.026)" fill="black">
          <tspan font-family="Helvetica Neue" font-size="16" fill="black" x="53.316" y="15" xml:space="preserve">A</tspan>
        </text>
      </g>
      <g id="Graphic_105">
        <rect x="13.1" y="747.5" width="127" height="77.5" fill="white"/>
        <rect x="13.1" y="747.5" width="127" height="77.5" stroke="black" stroke-linecap="round" stroke-linejoin="round" stroke-width="1"/>
        <text transform="translate(18.1 777.026)" fill="black">
          <tspan font-family="Helvetica Neue" font-size="16" fill="black" x="53.316" y="15" xml:space="preserve">A</tspan>
        </text>
      </g>
      <g id="Graphic_104">
        <rect x="154.1" y="747.5" width="78" height="77.5" fill="white"/>
        <rect x="154.1" y="747.5" width="78" height="77.5" stroke="black" stroke-linecap="round" stroke-linejoin="round" stroke-width="1"/>
        <text transform="translate(159.1 777.026)" fill="black">
          <tspan font-family="Helvetica Neue" font-size="16" fill="black" x="28.816" y="15" xml:space="preserve">A</tspan>
        </text>
      </g>
      <g id="Line_103">
        <line x1="-458.4" y1="785.75" x2="245.1" y2="785.75" stroke="#7f8080" stroke-linecap="round" stroke-linejoin="round" stroke-width="1"/>
      </g>
      <g id="Graphic_102">
        <text transform="translate(-556.9 777.026)" fill="black">
          <tspan font-family="Helvetica Neue" font-size="16" fill="black" x="0" y="15" xml:space="preserve">GC Horizon</tspan>
        </text>
      </g>
      <g id="Graphic_99">
        <rect x="58.8" y="849.92" width="173.5" height="28.447998" fill="white"/>
        <rect x="58.8" y="849.92" width="173.5" height="28.447998" stroke="black" stroke-linecap="round" stroke-linejoin="round" stroke-width="1"/>
        <text transform="translate(63.8 854.92)" fill="black">
          <tspan font-family="Helvetica Neue" font-size="16" fill="black" x="76.27" y="15" xml:space="preserve">B</tspan>
        </text>
      </g>
      <g id="Graphic_98">
        <rect x="-409.7" y="832.42" width="490.8" height="12.157997" fill="white"/>
        <rect x="-409.7" y="832.42" width="490.8" height="12.157997" stroke="black" stroke-linecap="round" stroke-linejoin="round" stroke-width="1"/>
        <text transform="translate(-404.7 829.275)" fill="black">
          <tspan font-family="Helvetica Neue" font-size="16" fill="black" x="234.624" y="15" xml:space="preserve">C</tspan>
        </text>
      </g>
      <g id="Graphic_112">
        <text transform="translate(273 797.5)" fill="black">
          <tspan font-family="Helvetica Neue" font-size="26" fill="black" x="6536993e-19" y="25" xml:space="preserve">B</tspan>
          <tspan font-family="Lucida Grande" font-size="26" fill="black" y="25" xml:space="preserve">↓</tspan>
        </text>
      </g>
      <g id="Graphic_113">
        <text transform="translate(273 833.974)" fill="black">
          <tspan font-family="Helvetica Neue" font-size="26" fill="black" x="42277293e-20" y="25" xml:space="preserve">C</tspan>
          <tspan font-family="Lucida Grande" font-size="26" fill="black" y="25" xml:space="preserve">↓</tspan>
        </text>
      </g>
    </g>
  </g>
</svg>
